<svg width="124" height="126" viewBox="0 0 124 126" fill="none" xmlns="http://www.w3.org/2000/svg">
<path id="Vector" d="M111.978 44.9129L107.475 45.0441L104.463 55.2075L105.201 64.4616L102.63 73.7396L103.853 82.9866L104.23 93.2335L98.3531 85.4016L91.0413 80.5072L86.3238 72.9855L79.7565 68.1103L12.4959 7.08318e-06L-4.95448e-06 12.6546L66.5207 80.0204L75.4844 85.9218L79.1557 93.9613L86.3144 98.4237L93.2115 106.065L84.2077 104.497L76.3563 104.382L73.0079 107.723L62.43 105.482L54.4089 108.704L45.8882 106.203L44.5003 114.281L42.1722 117.245L43.0606 120.237L44.7147 123.067L47.3657 125.623L50.2193 124.673L53.0564 125.792L55.9382 121.437L58.747 126L61.6053 124.461L64.4683 122.44L67.3125 122.755L70.1378 125.224L72.989 124.568L74.0965 121.595L78.6726 125.315L81.5827 123.714L84.368 124.888L87.2334 122.521L90.0634 124.318L92.9334 121.542L95.7517 124.945L98.5958 125.065L101.447 124.418L104.317 121.6L107.157 122.287L109.991 123.707L112.852 121.977L115.67 125.919L118.538 123.513L120.256 122.736L121.363 120.986L123.456 118.08L121.017 115.207L120.399 112.322L123.901 109.406L122.32 106.525L119.273 103.657L123.211 100.736L119.436 97.8725L120.609 94.9731L121.681 92.0737L124 89.1672L119.226 86.3131L123.967 83.3875L118.326 80.5382L122.567 77.615L122.176 74.7276L121.681 71.8401L119.447 68.9646L119.047 66.0772L121.514 63.1682L120.857 60.2832L118.566 57.4101L121.446 54.4963L119.344 51.6208L119.563 48.7262L119.808 46.8959L117.895 48.3062L114.923 44.7793L111.978 44.9129Z" fill="#08BC80" fill-opacity="0.72"/>
</svg>
