<svg width="96" height="218" viewBox="0 0 96 218" fill="none" xmlns="http://www.w3.org/2000/svg">
<path id="Vector" d="M92.4172 123.915L88.1015 119.496L86.9379 112.972L80.719 111.215L72.3981 100.871L72.8928 98.2814L65.3444 94.7667L65.9754 90.8769L70.0167 87.277L72.5789 80.8912L78.5562 78.3329L80.5119 73.7471L84.4185 70.6877L87.2074 69.5641L86.7407 67.4284L89.3522 67.4202L90.123 65.8479L91.6859 66.2099L93.3359 65.8004L94.1445 63.8023L95.2194 61.9221L93.8208 60.34L93.2817 58.2502L89.957 58.2534L90.6932 55.2088L90.2659 53.037L88.8575 51.6023L87.8813 49.8449L84.3987 49.9678L84.4612 47.4292L83.2697 45.8323L81.1545 44.9266L80.484 42.94L80.3164 40.5733L78.5283 39.4252L77.9662 37.355L74.5001 37.4664L74.8847 34.6854L74.1534 32.7446L73.1213 31.0282L69.9954 30.8841L69.1128 29.0563L68.3207 27.1614L67.9279 24.9651L65.7224 24.1298L65.2244 22.0121L64.6853 19.9255L61.1831 20.5921L62.2924 16.74L60.649 15.4822L57.602 15.2774L58.4779 12.1296L53.7234 15.207L56.823 8.39047L53.7694 8.1923L53.1712 6.14996L52.3527 4.27467L49.2515 4.11089L49.4356 1.48221L48.1865 0.00327561L45.6835 0L43.7705 0.871312L43.1953 3.51309L42.4936 5.98945L39.2904 5.1509L39.6208 7.51589L38.5657 9.609L41.1114 10.1544L46.5661 9.35514L43.1263 13.5545L44.5364 14.9499L45.1856 16.9185L48.7437 17.079L46.6795 20.7068L47.7395 22.3659L50.9952 22.3773L52.3494 23.8153L51.9336 26.5832L52.3067 28.7566L56.1344 28.3389L57.1648 30.0193L56.5485 32.9363L57.0169 35.0408L60.7772 34.6707L59.8749 37.8038L60.598 39.7135L62.2612 40.9189L65.558 40.8976L67.1933 42.1243L65.9754 45.4933L68.72 45.888L70.0283 47.3604L69.2279 50.4149L70.3619 52.0183L73.2708 52.2902L72.6151 55.235L76.3852 54.8599L75.9349 57.6524L76.0647 60.0092L77.9416 60.5021L76.8404 61.2277L76.6235 61.3702L75.8461 63.4371L74.5659 63.4764L73.6652 65.9888L68.9321 68.3931L67.9115 71.3526L65.2178 71.5737L60.5043 75.6813L59.1255 82.8058L52.7242 85.6261L50.3707 92.6866L54.5468 94.3507L56.6356 101.704L61.9259 102.397L63.8159 109.024L70.8352 110.444L73.2001 117.424L75.0737 123.934L79.7181 128.183L74.8863 131.711L73.9446 134.194L72.6233 137.672L68.4439 139.927L67.1834 140.609L64.2416 144.31L14.6072 196.07L12.2948 163.848L0 164.724L3.82271 218L57.3752 213.34L56.3036 201.103L24.1459 203.902L64.8661 160.621L75.8774 153.836L77.2694 147.039L83.8137 144.263L87.4326 134.968L93.193 133.953L96 128.797L92.4172 123.915Z" fill="#7482E8"/>
</svg>
