<svg width="47" height="72" viewBox="0 0 47 72" fill="none" xmlns="http://www.w3.org/2000/svg">
<path id="Vector" d="M45.2103 44.8674L43.7855 43.5234L39.7304 45.7268L37.1078 48.8029L33.4607 50.8692L30.9896 54.0923L27.9505 57.3632L28.5552 53.1451L27.8142 49.3901L28.6798 45.6239L28.1618 42.1038L28.4543 0.454188L20.7162 0.508801L20.4255 41.7017L21.3643 46.2745L20.0176 49.8785L20.8445 53.4534L20.6123 57.9265L18.3269 54.6756L15.9483 52.2265L13.8903 52.2257L11.3281 48.2838L7.87023 46.8097L6.02065 43.4201L3.10685 45.4805L1.47854 45.6773L0.83029 46.8717L0.467444 48.2517L0.495533 49.8536L1.66526 50.4385L2.1929 51.6553L4.4198 51.2004L3.87851 53.4688L5.23117 53.8736L6.7337 54.1315L7.51112 55.1029L7.61927 56.732L8.6979 57.4065L9.95388 56.8315L10.2153 59.3838L11.603 59.7855L12.0978 61.0033L13.7076 61.1553L14.0244 62.5787L15.7613 62.6065L15.5799 64.5207L16.4176 65.4318L17.4933 66.1093L19.2434 66.124L19.9048 67.2085L20.3391 68.5172L21.7513 68.864L21.4039 70.9442L23.0262 71.0852L23.7938 71.3738L24.6729 71.1758L26.2111 70.9241L26.3459 69.2897L27.0444 68.2116L29.0188 68.3903L29.4195 67.0173L29.366 65.1975L31.4759 65.5087L31.197 63.4664L32.4505 62.9345L33.6728 62.3714L35.2806 62.1893L34.6916 59.8429L37.05 60.3996L36.193 57.788L38.397 58.192L39.1658 57.1827L39.9027 56.1415L40.1013 54.5694L40.8672 53.5572L42.5213 53.42L43.2075 52.3296L43.388 50.7408L45.1704 50.7289L45.4096 49.1974L46.3682 48.3735L47.0071 47.8853L45.9846 47.7313L46.157 45.7318L45.2103 44.8674Z" fill="white"/>
</svg>
