<svg width="1316" height="752" viewBox="0 0 1316 752" fill="none" xmlns="http://www.w3.org/2000/svg">
<path d="M1.65204 2.96748L18.1547 12.4024L31.7614 4.11189L45.3684 8.53437L58.975 3.91676L72.5819 9.3683L86.1887 0.337051L99.7955 9.48805L113.406 7.46095L127.009 3.26027L140.616 0.168476L154.218 6.46731L167.825 6.17458L181.432 4.02322L195.039 3.50863L208.646 11.2092L222.248 1.3085L235.855 4.64425L249.462 4.57327L263.069 1.22867L276.676 -9.08606e-05L290.282 3.92117L347.206 7.49644L359.418 4.8527L372.657 7.47874L398.896 5.19426L442.335 6.2589L467.166 0.230639L467.183 0.239489L565.583 5.10553L622.91 4.39581L761.462 3.06068L1054.8 7.03959L1093.86 4.70201L1112.93 9.47044L1308.55 9.4527L1316 66.741L1304.92 139.723L1305.65 184.942L1313.17 205.701L1307.79 229.197L1315.07 259.17L1306.98 286.211L1315.76 302.175L1307.08 331.491L1313.91 363.775L1313.21 434.752L1308.93 449.532L1312.59 464.312L1305.38 479.092L1306.19 493.872L1313.32 508.652L1305.22 523.437L1307.7 538.217L1310.15 552.997L1308.94 567.777L1312.51 582.562L1305.16 597.342L1314.74 612.126L1313.52 626.906L1310.16 641.691L1312.8 656.471L1310.56 671.251L1311.54 686.035L1307.7 700.82L1307.32 715.604L1311.83 730.389L1311.99 746.384L1297.27 742.552L1283.66 742.88L1270.05 745.045L1256.45 741.571L1242.84 748.017L1229.23 747.923L1215.63 748.292L1202.01 739.748L1188.41 740.44L1174.81 746.477L1161.2 744.446L1147.6 752L1133.99 750.394L1120.38 751.108L1106.78 745.466L1093.17 743.714L1079.57 744.876L1065.96 742.769L1052.35 742.561L1038.75 750.474L1025.14 745.005L1011.53 740.152L997.929 738.697L984.322 742.037L970.716 744.916L957.109 749.245L943.502 751.117L861.27 748.061L847.834 741.678L808.07 751.202L746.371 742.459L657.661 748.744L644.25 740.165L464.303 747.91L414.987 748.278L291.114 745.808L180.91 748.425L153.109 742.969L115.821 748.03L58.9954 744.854L45.3845 738.892L31.7941 749.33L3.43433 744.947L7.84351 655.921L2.90003 642.094L5.64503 600.016L5.41262 503.551L5.28616 440.133L5.28201 383.834L5.29838 335.173L5.31474 273.821L1.27666 183.513L8.52471 168.729L0.815848 153.949L3.43035 139.164L5.48679e-05 124.384L1.17474 109.604L10.3765 94.8194L5.75116 80.0394L2.12103 65.2549L8.8714 50.4703L3.4997 35.6903L0.534488 21.3228L1.65204 2.96748Z" fill="#EAE9ED"/>
</svg>
