<svg width="29" height="27" viewBox="0 0 29 27" fill="none" xmlns="http://www.w3.org/2000/svg">
<g id="svg">
<path id="Vector" d="M16.5577 24.4967C15.4399 24.4967 14.362 24.3523 13.3241 24.0634C12.284 23.7745 11.3095 23.3601 10.4005 22.8201C9.48934 22.2823 8.66038 21.6401 7.91365 20.8934C7.16914 20.1468 6.52908 19.3179 5.99348 18.4068C5.45788 17.4979 5.04339 16.5234 4.75004 15.4834C4.45668 14.4456 4.31 13.3679 4.31 12.2501C4.31 11.1323 4.45445 10.0545 4.74337 9.01675C5.03228 7.97675 5.44676 7.00231 5.98681 6.09342C6.52686 5.18231 7.16914 4.35342 7.91365 3.60675C8.66038 2.86008 9.48934 2.22008 10.4005 1.68675C11.3095 1.1512 12.284 0.736751 13.3241 0.443418C14.362 0.150085 15.4399 0.00341797 16.5577 0.00341797C17.6756 0.00341797 18.7535 0.150085 19.7913 0.443418C20.8314 0.736751 21.8071 1.1512 22.7183 1.68675C23.6272 2.22008 24.4551 2.86008 25.2018 3.60675C25.9486 4.35342 26.5908 5.18231 27.1287 6.09342C27.6687 7.00231 28.0854 7.97675 28.3788 9.01675C28.6699 10.0545 28.8155 11.1323 28.8155 12.2501C28.8155 13.3679 28.6699 14.4456 28.3788 15.4834C28.0854 16.5234 27.6709 17.4979 27.1353 18.4068C26.5997 19.3179 25.9586 20.1468 25.2118 20.8934C24.4673 21.6401 23.6372 22.2823 22.7216 22.8201C21.8082 23.3601 20.8337 23.7745 19.798 24.0634C18.7624 24.3523 17.6823 24.4967 16.5577 24.4967ZM16.5577 21.7534C17.6134 21.7534 18.6157 21.5956 19.5647 21.2801C20.5136 20.9623 21.3848 20.5123 22.1782 19.9301C22.9716 19.3501 23.6572 18.6634 24.2351 17.8701C24.8129 17.0768 25.2596 16.2056 25.5752 15.2568C25.893 14.3079 26.0519 13.3056 26.0519 12.2501C26.0519 11.1945 25.893 10.1923 25.5752 9.24342C25.2596 8.29453 24.8107 7.42564 24.2284 6.63675C23.6461 5.84786 22.9583 5.16231 22.1649 4.58008C21.3737 3.99786 20.5025 3.54897 19.5513 3.23342C18.6024 2.91564 17.6012 2.75675 16.5477 2.75675C15.4921 2.75675 14.492 2.91564 13.5475 3.23342C12.6007 3.54897 11.7329 3.99786 10.9439 4.58008C10.155 5.16231 9.47156 5.84786 8.89373 6.63675C8.3159 7.42564 7.86809 8.29453 7.55028 9.24342C7.2347 10.1923 7.07691 11.1945 7.07691 12.2501C7.07691 13.3056 7.2347 14.3079 7.55028 15.2568C7.86809 16.2056 8.3159 17.0768 8.89373 17.8701C9.47156 18.6634 10.155 19.3501 10.9439 19.9301C11.7329 20.5123 12.6018 20.9623 13.5508 21.2801C14.502 21.5956 15.5043 21.7534 16.5577 21.7534ZM16.5477 17.7801C16.1877 17.7801 15.8977 17.6634 15.6777 17.4301C15.4599 17.1945 15.351 16.8901 15.351 16.5168V13.4568H12.1173C11.7484 13.4568 11.4428 13.3479 11.2006 13.1301C10.9606 12.9101 10.8406 12.6212 10.8406 12.2634C10.8406 11.8945 10.9572 11.6012 11.1906 11.3834C11.424 11.1634 11.7329 11.0534 12.1173 11.0534H15.351V7.84342C15.351 7.47675 15.4599 7.17453 15.6777 6.93675C15.8977 6.69675 16.1877 6.57675 16.5477 6.57675C16.9144 6.57675 17.2067 6.69231 17.4245 6.92342C17.6445 7.15453 17.7545 7.4612 17.7545 7.84342V11.0534H21.0015C21.3837 11.0534 21.6915 11.1634 21.9249 11.3834C22.1604 11.6012 22.2782 11.8945 22.2782 12.2634C22.2782 12.6212 22.1571 12.9101 21.9149 13.1301C21.6726 13.3479 21.3682 13.4568 21.0015 13.4568H17.7545V16.5168C17.7545 16.899 17.6445 17.2056 17.4245 17.4368C17.2067 17.6656 16.9144 17.7801 16.5477 17.7801Z" fill="black"/>
</g>
</svg>
