<?xml version="1.0" encoding="UTF-8"?><svg id="Calque_2" xmlns="http://www.w3.org/2000/svg" viewBox="0 0 3208.2 36.86"><defs><style>.cls-1{fill:#37b07d;opacity:.1;}</style></defs><g id="Calque_1-2"><polygon class="cls-1" points="3208.2 15.9 3207.07 36.86 .26 36.86 0 12.66 36.09 21.3 69.45 20.56 102.81 15.68 136.17 23.51 169.54 8.98 202.9 9.19 236.26 8.36 269.62 27.62 302.98 26.06 336.33 12.46 369.69 17.03 403.04 0 436.41 3.62 469.76 2.01 503.12 14.73 536.48 18.69 569.83 16.06 603.2 20.81 636.55 21.28 669.91 3.44 703.27 15.77 736.63 26.71 769.99 29.99 803.34 22.46 836.7 15.97 870.06 6.21 903.42 1.99 1105.04 8.88 1137.97 23.27 1235.47 1.8 1386.74 21.51 1604.22 7.34 1637.1 26.68 2078.28 9.22 2199.2 8.39 2502.89 13.96 2773.08 8.06 2841.24 20.36 2932.67 8.95 3071.99 16.12 3105.36 29.55 3138.68 6.02 3208.2 15.9"/></g></svg>