<svg width="93" height="65" viewBox="0 0 93 65" fill="none" xmlns="http://www.w3.org/2000/svg">
<g id="Calque_1">
<path id="Vector" d="M64.8218 19.1935V8H28.1782V19.1935H6V65H87V19.1935H64.8218ZM57.0283 31.9298C59.0356 31.9298 60.6634 33.5711 60.6634 35.5952C60.6634 37.6194 59.0356 39.2607 57.0283 39.2607C55.021 39.2607 53.3933 37.6194 53.3933 35.5952C53.3933 33.5711 55.021 31.9298 57.0283 31.9298ZM35.9717 31.9298C37.979 31.9298 39.6067 33.5711 39.6067 35.5952C39.6067 37.6194 37.979 39.2607 35.9717 39.2607C33.9644 39.2607 32.3366 37.6194 32.3366 35.5952C32.3366 33.5711 33.9644 31.9298 35.9717 31.9298ZM58.9091 57.8141C58.9091 50.9124 53.3415 45.2982 46.5029 45.2982C39.6642 45.2982 34.0909 50.9124 34.0909 57.8141H31.5314C31.5314 49.4915 38.2493 42.7173 46.5029 42.7173C54.7564 42.7173 61.4686 49.4915 61.4686 57.8141H58.9091Z" fill="#FFFBEE"/>
</g>
</svg>
