<?xml version="1.0" encoding="UTF-8"?><svg id="Calque_2" xmlns="http://www.w3.org/2000/svg" viewBox="0 0 485.26 225.86"><defs><style>.cls-1{fill:#fff;}</style></defs><g id="Calque_1-2"><path class="cls-1" d="M247.67,178.93l8.8-5.87-14.67-8.8,11.73-14.67-11.73-5.87,11.73-5.87-11.73-8.8v-8.8l11.73-5.87-5.87-8.8,2.93-8.8-8.8-2.93,7.12-13.15-4.18-4.45,8.8-8.8-8.8-11.73,2.93-11.73h-17.6l-7.69,13.05-4.04,4.55-5.87-2.93-2.93-8.8h-23.47s-8.8,8.8-8.8,8.8l-11.73-5.87-8.8,8.8-2.93,11.73-14.67,2.93-11.73,11.73,2.93,11.73-5.87,11.73,17.6,11.73-8.8,17.6,5.87,11.73,14.67,2.93,2.93,14.67,11.73-2.93,8.8,2.93,8.8,11.73,14.67-2.93,8.8-14.67h5.87l5.87,5.87,8.8-2.93-2.93,11.73,8.8,8.8-2.93,8.8-8.8,2.93-2.93-2.93-8.8-2.93-8.8,5.87-5.87-2.93-8.8,11.73-2.93-11.73-8.8,5.87-11.73-8.8h-14.67l2.93,8.8-11.73,2.93,11.73,5.87v5.87l8.8,5.87,8.8-5.87,8.8,5.87,8.8-5.87,5.87,8.8h11.73l5.87-11.73,14.67,5.87,2.93-5.87,11.73,5.87,5.87-5.87v-13.49l2.93-6.45-2.93-6.45v-8.8ZM230.07,114.4l-11.48,6,7.54,10.5-4.86,6.96h-8.8l8.8,20.53-20.53-11.73-8.8,14.67-11.73-14.67-17.6,14.67,8.8-32.27-14.67,2.93-2.93-8.8,8.8-8.8-29.33-5.87,29.33-11.73,5.87-2.93-11.73-17.6,17.6,5.87,2.93-5.87,8.8-11.73,5.87,11.73,21.34-6.99,17.6,11.78-18.41,12.81,2.93,8.8h17.6l-2.93,11.73Z"/><path class="cls-1" d="M326.86,58.66l-17.6-5.87-14.67,11.73-26.4-2.93,2.93,8.8-5.87,5.87v5.87l11.73,5.87-2.83,2.83,2.83,5.97h-8.8l2.93,8.8-8.8,2.93,2.93,8.8,8.8,2.93-5.87,8.8,11.73,2.93-14.67,14.67,8.8,2.93,5.87,14.67,17.6,5.87,11.73,11.73,17.6-2.93,17.6,2.93,5.87-14.67,20.53-2.93v-20.53l8.8-20.53-5.87-5.87,2.93-23.47-8.8-5.87-2.93-14.67-14.67-5.87-8.8-17.6-14.67,8.8ZM356.19,149.59l-17.6,2.93-14.67,8.8-11.73-8.8-26.4,5.87,8.8-11.73-8.8-8.8,2.93-8.8-2.93-8.8-5.87-5.87,17.6-11.73-8.8-2.93,2.98-11.61-5.92-8.92,14.67-8.8,17.6,5.87,8.8-8.8,11.73,14.67,17.6,2.93-8.8,20.53,11.73,20.53-14.67,8.8,11.73,14.67Z"/><path class="cls-1" d="M95.14,133.02l-2.93,5.73h-8.8l-5.87,11.47-20.53,5.73-23.47-8.6-10.09-22.64c-.07-.36,1.33.07,1.29-.3h5.87l58.66-2.87h0s14.67-2.87,14.67-2.87l8.8-5.73-2.93-14.34,5.87-8.6-2.93-8.6-14.67-5.73v-11.47s-2.93-5.73-2.93-5.73h-14.67l-8.8-5.73-8.8-2.87-11.73,5.73-8.8-2.87-8.8,2.87-12.06,9.08c-2.19,1.71-4.25,3.62-6.18,5.72-.35.39-.7.77-1.01,1.16C4.8,82.48,0,97.27,0,115.5c0,2.51.09,4.97.29,7.35,1.16,15.62,6.2,28.34,15.01,37.86,1.47,1.59,3.02,3.06,4.67,4.41,9.77,8.18,22.36,12.32,37.52,12.32,4.58,0,8.92-.39,13.04-1.16,9.25-1.67,25.55-9.56,25.55-9.56l1.99-10.76,11.73-2.87v-11.47l2.93-2.87v-11.47s-11.73,5.73-11.73,5.73h-5.87ZM60.92,70.81l10.05,5.49,24.17,7.98-5.87,22.94-63.28-6.02-.68-.28,2.81-10.54c1.01-1.84,2.17-3.49,3.46-4.95,1.18-1.33,3.66-6.36,5.11-7.39l11.95-1.37,12.28-5.85Z"/><path class="cls-1" d="M466.57,155.98h-27.57V44.26c0-7.49-.93-13.93-2.81-19.25v-.02c-1.45-4.16-3.46-7.62-6-10.41-3.08-3.35-7.06-5.86-11.9-7.47l-9.29-1.25-14.67-5.87-11.73,2.93h.46s-18.06,0-18.06,0l-5.87,11.73,8.8,8.8,20.53-5.87,11.73,8.8h8.8l5.87,11.73,5.87,5.87-8.8,11.73,5.87,5.87-2.93,11.73,5.87,14.67-5.87,11.73v11.73l2.93,5.87-5.87,20.53,5.87,20.53-17.6-2.93-5.4,2.93h-9.26s-5.87,14.67-5.87,14.67v5.87s3.48,0,3.48,0h102.11v-22.95h-18.69Z"/></g></svg>