<?xml version="1.0" encoding="UTF-8"?><svg id="Calque_2" xmlns="http://www.w3.org/2000/svg" viewBox="0 0 488.82 228.57"><defs><style>.cls-1{fill:#1d1d1b;}</style></defs><g id="Calque_1-2"><path class="cls-1" d="M250.64,181.08l8.91-5.94-14.84-8.91,11.87-14.84-11.87-5.94,11.87-5.94-11.87-8.91v-8.91l11.87-5.94-5.94-8.91,2.97-8.91-8.91-2.97,7.2-13.31-4.23-4.5,8.91-8.91-8.91-11.87,2.97-11.87h-17.81l-7.78,13.21-4.09,4.61-5.94-2.97-2.97-8.91h-23.75s-8.91,8.91-8.91,8.91l-11.87-5.94-8.91,8.91-2.97,11.87-14.84,2.97-11.87,11.87,2.97,11.87-5.94,11.87,17.81,11.87-8.91,17.81,5.94,11.87,14.84,2.97,2.97,14.84,11.87-2.97,8.91,2.97,8.91,11.87,14.84-2.97,8.91-14.84h5.94l5.94,5.94,8.91-2.97-2.97,11.87,8.91,8.91-2.97,8.91-8.91,2.97-2.97-2.97-8.91-2.97-8.91,5.94-5.94-2.97-8.91,11.87-2.97-11.87-8.91,5.94-11.87-8.91h-14.84l2.97,8.91-11.87,2.97,11.87,5.94v5.94l8.91,5.94,8.91-5.94,8.91,5.94,8.91-5.94,5.94,8.91h11.87l5.94-11.87,14.84,5.94,2.97-5.94,11.87,5.94,5.94-5.94v-13.65l2.97-6.53-2.97-6.53v-8.91ZM229.95,115.68l-10.91,5.71,7.17,9.98-4.62,6.62h-8.37l8.37,19.52-19.52-11.15-8.37,13.94-11.15-13.94-16.73,13.94,8.37-30.67-13.94,2.79-2.79-8.37,8.37-8.37-27.89-5.58,27.89-11.15,5.58-2.79-11.15-16.73,16.73,5.58,2.79-5.58,8.37-11.15,5.58,11.15,20.29-6.64,16.73,11.19-17.5,12.18,2.79,8.37h16.73l-2.79,11.15Z"/><path class="cls-1" d="M328.52,59.37l-17.81-5.94-14.84,11.87-22.5-4.45,2.97,8.91-7.62,5.64v5.94l9.35,7.72-2.87,2.87,2.87,6.04h-8.91l2.97,8.91-8.91,2.97,2.97,8.91,8.91,2.97-5.94,8.91,11.87,2.97-14.84,14.84,8.91,2.97,5.94,14.84,17.81,5.94,11.87,11.87,17.81-2.97,17.81,2.97,5.94-14.84,20.78-2.97v-20.78l8.91-20.78-5.94-5.94,2.97-23.75-8.91-5.94-2.97-14.84-14.84-5.94-8.91-17.81-14.84,8.91ZM358.21,151.39l-17.81,2.97-14.84,8.91-11.87-8.91-21.36,4.75,8.01-11.13-8.91-8.91,2.97-8.91-7.43-8.46-1.47-6.38,17.81-11.87-8.91-2.97,3.02-11.75-5.99-9.03,12.86-5.33,15.33,2.81,8.91-8.91,11.87,14.84,17.81,2.97-8.91,20.78,11.87,20.78-14.84,8.91,11.87,14.84Z"/><path class="cls-1" d="M96.28,134.61l-2.97,5.8h-8.91l-5.94,11.61-20.78,5.8-23.75-8.71-10.21-22.91c-.07-.37,1.35.07,1.31-.3h5.94l59.37-2.9h0s14.84-2.9,14.84-2.9l8.91-5.8-2.97-14.51,5.94-8.71-2.97-8.71-14.84-5.8v-11.61s-2.97-5.8-2.97-5.8h-14.84l-8.91-5.8-8.91-2.9-11.87,5.8-8.91-2.9-8.91,2.9-12.21,9.19c-2.22,1.73-4.3,3.66-6.25,5.79-.35.39-.71.78-1.02,1.17C4.86,83.48,0,98.44,0,116.89c0,2.54.09,5.03.29,7.44,1.18,15.81,6.28,28.68,15.19,38.31,1.49,1.6,3.06,3.1,4.72,4.47,9.89,8.28,22.62,12.47,37.97,12.47,4.64,0,9.03-.39,13.2-1.17,9.36-1.69,25.86-9.68,25.86-9.68l2.01-10.89,11.87-2.9v-11.61l2.97-2.9v-11.61s-11.87,5.8-11.87,5.8h-5.94ZM61.65,71.66l10.17,5.55,24.46,8.07-5.94,23.21-64.04-6.1-.69-.28,2.84-10.67c1.02-1.86,2.2-3.53,3.5-5.01,1.2-1.34,3.7-6.44,5.17-7.48l12.09-1.39,12.43-5.92Z"/><path class="cls-1" d="M469.91,157.85h-27.9V44.79c0-7.58-.94-14.1-2.85-19.48v-.02c-1.47-4.21-3.5-7.71-6.07-10.54-3.12-3.39-7.14-5.93-12.04-7.56l-9.4-1.26-14.84-5.94-11.87,2.97h.47s-18.28,0-18.28,0l-5.94,11.87,8.91,8.91,20.78-5.94,11.87,8.91h8.91l5.94,11.87,5.94,5.94-8.91,11.87,5.94,5.94-2.97,11.87,5.94,14.84-5.94,11.87v11.87l2.97,5.94-5.94,20.78,5.94,20.78-17.81-2.97-5.47,2.97h-9.37s-5.94,14.84-5.94,14.84v5.94s3.53,0,3.53,0h103.34v-23.23h-18.91Z"/></g></svg>