<svg width="29" height="27" viewBox="0 0 29 27" fill="none" xmlns="http://www.w3.org/2000/svg">
<g id="svg">
<path id="Vector" d="M14.6571 24.9967C13.5392 24.9967 12.4613 24.8523 11.4235 24.5634C10.3834 24.2745 9.40885 23.8601 8.49988 23.3201C7.58869 22.7823 6.75973 22.1401 6.013 21.3934C5.26849 20.6468 4.62843 19.8179 4.09283 18.9068C3.55723 17.9979 3.14274 17.0234 2.84939 15.9834C2.55603 14.9456 2.40935 13.8679 2.40935 12.7501C2.40935 11.6323 2.5538 10.5545 2.84272 9.51675C3.13163 8.47675 3.54611 7.50231 4.08616 6.59342C4.62621 5.68231 5.26849 4.85342 6.013 4.10675C6.75973 3.36008 7.58869 2.72008 8.49988 2.18675C9.40885 1.6512 10.3834 1.23675 11.4235 0.943418C12.4613 0.650085 13.5392 0.503418 14.6571 0.503418C15.775 0.503418 16.8528 0.650085 17.8907 0.943418C18.9308 1.23675 19.9064 1.6512 20.8176 2.18675C21.7266 2.72008 22.5544 3.36008 23.3012 4.10675C24.0479 4.85342 24.6902 5.68231 25.228 6.59342C25.768 7.50231 26.1848 8.47675 26.4781 9.51675C26.7692 10.5545 26.9148 11.6323 26.9148 12.7501C26.9148 13.8679 26.7692 14.9456 26.4781 15.9834C26.1848 17.0234 25.7703 17.9979 25.2347 18.9068C24.6991 19.8179 24.0579 20.6468 23.3112 21.3934C22.5667 22.1401 21.7366 22.7823 20.821 23.3201C19.9075 23.8601 18.933 24.2745 17.8974 24.5634C16.8617 24.8523 15.7816 24.9967 14.6571 24.9967ZM14.6571 22.2534C15.7127 22.2534 16.715 22.0956 17.664 21.7801C18.613 21.4623 19.4842 21.0123 20.2776 20.4301C21.071 19.8501 21.7566 19.1634 22.3344 18.3701C22.9122 17.5768 23.359 16.7056 23.6745 15.7568C23.9923 14.8079 24.1512 13.8056 24.1512 12.7501C24.1512 11.6945 23.9923 10.6923 23.6745 9.74342C23.359 8.79453 22.91 7.92564 22.3278 7.13675C21.7455 6.34786 21.0576 5.66231 20.2642 5.08008C19.4731 4.49786 18.6019 4.04897 17.6507 3.73342C16.7017 3.41564 15.7005 3.25675 14.6471 3.25675C13.5914 3.25675 12.5913 3.41564 11.6468 3.73342C10.7001 4.04897 9.83222 4.49786 9.04326 5.08008C8.2543 5.66231 7.57091 6.34786 6.99308 7.13675C6.41525 7.92564 5.96744 8.79453 5.64963 9.74342C5.33405 10.6923 5.17626 11.6945 5.17626 12.7501C5.17626 13.8056 5.33405 14.8079 5.64963 15.7568C5.96744 16.7056 6.41525 17.5768 6.99308 18.3701C7.57091 19.1634 8.2543 19.8501 9.04326 20.4301C9.83222 21.0123 10.7012 21.4623 11.6502 21.7801C12.6013 22.0956 13.6037 22.2534 14.6571 22.2534ZM14.6471 18.2801C14.287 18.2801 13.997 18.1634 13.777 17.9301C13.5592 17.6945 13.4503 17.3901 13.4503 17.0168V13.9568H10.2167C9.84777 13.9568 9.54219 13.8479 9.29995 13.6301C9.05993 13.4101 8.93992 13.1212 8.93992 12.7634C8.93992 12.3945 9.05659 12.1012 9.28995 11.8834C9.5233 11.6634 9.83222 11.5534 10.2167 11.5534H13.4503V8.34342C13.4503 7.97675 13.5592 7.67453 13.777 7.43675C13.997 7.19675 14.287 7.07675 14.6471 7.07675C15.0138 7.07675 15.306 7.19231 15.5238 7.42342C15.7438 7.65453 15.8539 7.9612 15.8539 8.34342V11.5534H19.1008C19.4831 11.5534 19.7909 11.6634 20.0242 11.8834C20.2598 12.1012 20.3776 12.3945 20.3776 12.7634C20.3776 13.1212 20.2565 13.4101 20.0142 13.6301C19.772 13.8479 19.4675 13.9568 19.1008 13.9568H15.8539V17.0168C15.8539 17.399 15.7438 17.7056 15.5238 17.9368C15.306 18.1656 15.0138 18.2801 14.6471 18.2801Z" fill="white"/>
</g>
</svg>
