<?xml version="1.0" encoding="UTF-8"?><svg id="Calque_2" xmlns="http://www.w3.org/2000/svg" viewBox="0 0 3320.66 116.8"><defs><style>.cls-1{fill:#e9e8ed;}</style></defs><g id="Calque_1-2"><polygon class="cls-1" points="3315.86 39.83 3317.77 116.8 0 116.8 0 13.43 1969.95 13.43 2011.09 11.08 2052.51 20.83 2078.03 12 2091.14 19.89 2204.11 14.84 2214.84 22.4 2228.05 22.52 2256.63 15.25 2292.08 22 2301.7 33.1 2319.52 30.35 2327.46 13.41 2375.88 9.7 2390.95 25.71 2413.63 23.32 2473.6 7.29 2499.36 19.75 2525.39 36.26 2556.75 36.2 2584.03 23.38 2609.81 28.95 2616.44 11.41 2627.59 25.2 2671.78 17.72 2710.13 10.19 2735.42 30.96 2797.77 19.9 2861.87 22.11 2872.51 40.46 2894.97 12.44 2908.15 28.18 2933.14 30.16 2953.62 14.6 2960.66 29.1 2969.53 31.9 2979.71 27.11 2989.11 26.8 2997.33 20.2 3006.76 20.69 3015.26 13.55 3024.55 10.44 3034.08 20.64 3042.63 9.14 3052.41 23.4 3060.5 7.07 3069.76 9.76 3079.72 23.21 3087.75 18.5 3096.54 20.88 3103.28 30.91 3115.03 27.37 3124.57 38.09 3133.27 29.24 3141.02 26.33 3149.05 23.97 3148.86 4.77 3160.39 0 3168.78 16.41 3178.6 17.58 3185.42 27.62 3197.8 17.09 3205.6 18.75 3215.68 32.52 3224.64 30.52 3232.42 31.08 3240.57 30.83 3249.72 32.36 3260.54 25.71 3268.87 21.7 3276.72 23.33 3289.31 33.03 3294.91 21.4 3300.39 9.41 3306.92 21.21 3320.66 22.5 3312.68 31.16 3315.86 39.83"/></g></svg>